<svg id="visual" viewBox="0 0 960 540" width="960" height="540" xmlns="http://www.w3.org/2000/svg" xmlns:xlink="http://www.w3.org/1999/xlink" version="1.1"><path d="M0 313L32 299.7C64 286.3 128 259.7 192 265.8C256 272 320 311 384 308C448 305 512 260 576 258.7C640 257.3 704 299.7 768 316.8C832 334 896 326 928 322L960 318L960 0L928 0C896 0 832 0 768 0C704 0 640 0 576 0C512 0 448 0 384 0C320 0 256 0 192 0C128 0 64 0 32 0L0 0Z" fill="#1f2937" stroke-linecap="round" stroke-linejoin="miter"></path></svg>